<svg xmlns="http://www.w3.org/2000/svg" version="1.1" xmlns:xlink="http://www.w3.org/1999/xlink" xmlns:svgjs="http://svgjs.com/svgjs" width="1023" height="751"><rect width="1023" height="751" fill="#000000"></rect><rect width="1023" height="751" fill="#fe315d" opacity="0"></rect><g><g class="tile" vector-effect="non-scaling-stroke" id="SvgjsG1062" transform="matrix(3.2453140177404854e-15,1,-1,3.2453140177404854e-15,113.66668319702129,-1.6342482922482304e-13)"><polygon xmlns="http://www.w3.org/2000/svg" points="67.0270299911499,-12.972969973702394 67.0270299911499,35.52703002629761 35.5270299911499,67.02703002629761 -12.972970008850098,67.02703002629761 -12.972970008850098,-12.972969973702394 67.0270299911499,-12.972969973702394" transform="matrix(2.1028333333333333,0,0,2.1028333333333333,0,0)" fill-opacity="0.4549019607843137" fill="#fe315d" stroke-opacity="0.20784313725490197" stroke-width="6" stroke="#fe315d" opacity="1" stroke-linejoin="round" stroke-linecap="round" vector-effect="non-scaling-stroke"></polygon></g><g class="tile" vector-effect="non-scaling-stroke" id="SvgjsG1061" transform="matrix(1,-3.429011037612588e-15,3.429011037612588e-15,1,-5.115907697472721e-13,1.7053025658242404e-13)"><polygon xmlns="http://www.w3.org/2000/svg" points="67.0270299911499,41.08108408035166 67.0270299911499,89.58108408035166 35.5270299911499,121.08108408035166 -12.972970008850098,121.08108408035166 -12.972970008850098,41.08108408035166 67.0270299911499,41.08108408035166" transform="matrix(2.1028333333333333,0,0,2.1028333333333333,0,0)" fill-opacity="0.4549019607843137" fill="#007efc" stroke-opacity="0.20784313725490197" stroke-width="6" stroke="#007efc" opacity="1" stroke-linejoin="round" stroke-linecap="round" vector-effect="non-scaling-stroke"></polygon></g><g class="tile" vector-effect="non-scaling-stroke" id="SvgjsG1060" transform="matrix(-1,2.5717582782094417e-15,-2.5717582782094417e-15,-1,113.66668319702238,568.333297729492)"><polygon xmlns="http://www.w3.org/2000/svg" points="67.0270299911499,95.13513813440572 67.0270299911499,143.63513813440574 35.5270299911499,175.13513813440574 -12.972970008850098,175.13513813440574 -12.972970008850098,95.13513813440572 67.0270299911499,95.13513813440572" transform="matrix(2.1028333333333333,0,0,2.1028333333333333,0,0)" fill-opacity="0.4549019607843137" fill="#007efc" stroke-opacity="0.20784313725490197" stroke-width="6" stroke="#007efc" opacity="1" stroke-linejoin="round" stroke-linecap="round" vector-effect="non-scaling-stroke"></polygon></g><g class="tile" vector-effect="non-scaling-stroke" id="SvgjsG1059" transform="matrix(-1,2.0818995585505e-15,-2.0818995585505e-15,-1,113.66668319702246,795.6666564941406)"><polygon xmlns="http://www.w3.org/2000/svg" points="67.0270299911499,149.18919218845977 67.0270299911499,197.68919218845977 35.5270299911499,229.18919218845977 -12.972970008850098,229.18919218845977 -12.972970008850098,149.18919218845977 67.0270299911499,149.18919218845977" transform="matrix(2.1028333333333333,0,0,2.1028333333333333,0,0)" fill-opacity="0.4549019607843137" fill="#007efc" stroke-opacity="0.20784313725490197" stroke-width="6" stroke="#007efc" opacity="1" stroke-linejoin="round" stroke-linecap="round" vector-effect="non-scaling-stroke"></polygon></g><g class="tile" vector-effect="non-scaling-stroke" id="SvgjsG1058" transform="matrix(-1,3.0616169978683826e-15,-3.0616169978683826e-15,-1,113.66668319702316,1023)"><polygon xmlns="http://www.w3.org/2000/svg" points="67.0270299911499,203.24324624251383 67.0270299911499,251.74324624251383 35.5270299911499,283.2432462425138 -12.972970008850098,283.2432462425138 -12.972970008850098,203.24324624251383 67.0270299911499,203.24324624251383" transform="matrix(2.1028333333333333,0,0,2.1028333333333333,0,0)" fill-opacity="0.4549019607843137" fill="#fe315d" stroke-opacity="0.20784313725490197" stroke-width="6" stroke="#fe315d" opacity="1" stroke-linejoin="round" stroke-linecap="round" vector-effect="non-scaling-stroke"></polygon></g><g class="tile" vector-effect="non-scaling-stroke" id="SvgjsG1057" transform="matrix(1,-3.673940397442058e-15,3.673940397442058e-15,1,-2.3092638912203256e-12,0)"><polygon xmlns="http://www.w3.org/2000/svg" points="67.0270299911499,257.2973002965679 67.0270299911499,305.7973002965679 35.5270299911499,337.2973002965679 -12.972970008850098,337.2973002965679 -12.972970008850098,257.2973002965679 67.0270299911499,257.2973002965679" transform="matrix(2.1028333333333333,0,0,2.1028333333333333,0,0)" fill-opacity="0.4549019607843137" fill="#fe315d" stroke-opacity="0.20784313725490197" stroke-width="6" stroke="#fe315d" opacity="1" stroke-linejoin="round" stroke-linecap="round" vector-effect="non-scaling-stroke"></polygon></g><g class="tile" vector-effect="non-scaling-stroke" id="SvgjsG1056" transform="matrix(-1,3.3065463576978533e-15,-3.3065463576978533e-15,-1,113.66668319702399,1477.666625976562)"><path xmlns="http://www.w3.org/2000/svg" d="M-12.972969973702394 311.35135435062193V319.85135435062193L58.52703002629761 391.35135435062193H67.02703002629761V382.85135435062193L-4.472969973702394 311.35135435062193ZM67.02703002629761 358.85135435062193V341.85135435062193L36.52703002629761 311.35135435062193H19.527030026297606ZM67.02703002629761 359.85135435062193V342.85135435062193L35.52703002629761 311.35135435062193H18.527030026297606ZM-12.972969973702394 342.85135435062193V359.85135435062193L18.527030026297606 391.35135435062193H35.52703002629761Z " transform="matrix(2.1028333333333333,0,0,2.1028333333333333,0,0)" fill-opacity="0.4549019607843137" fill="#007efc" stroke-opacity="0.20784313725490197" stroke-width="6" stroke="#007efc" opacity="1" stroke-linejoin="round" stroke-linecap="round" vector-effect="non-scaling-stroke"></path></g><g class="tile" vector-effect="non-scaling-stroke" id="SvgjsG1055" transform="matrix(-1,3.5514757175273236e-15,-3.5514757175273236e-15,-1,341,113.66668319702092)"><polygon xmlns="http://www.w3.org/2000/svg" points="121.08108520507812,-4.472969973702394 121.08108520507812,-12.972969973702394 121.08108520507812,-12.972969973702394 121.08108520507812,-12.972969973702394 121.08108520507812,-12.972969973702394 112.58108520507812,-12.972969973702394 112.58108520507812,-12.972969973702394 72.58108520507812,-12.972969973702394 41.081085205078125,18.527030026297606 41.081085205078125,58.52703002629761 41.081085205078125,58.52703002629761 41.081085205078125,67.02703002629761 49.581085205078125,67.02703002629761 121.08108520507812,-4.472969973702394" transform="matrix(2.1028333333333333,0,0,2.1028333333333333,0,0)" fill-opacity="0.4549019607843137" fill="#fe315d" stroke-opacity="0.20784313725490197" stroke-width="6" stroke="#fe315d" opacity="1" stroke-linejoin="round" stroke-linecap="round" vector-effect="non-scaling-stroke"></polygon></g><g class="tile" vector-effect="non-scaling-stroke" id="SvgjsG1054" transform="matrix(-1,2.8166876380389124e-15,-2.8166876380389124e-15,-1,341.0000000000005,340.99999999999955)"><path xmlns="http://www.w3.org/2000/svg" d="M41.08108408035166 41.08108408035166V49.58108408035166L112.58108408035166 121.08108408035166H121.08108408035166V112.58108408035166L49.58108408035166 41.08108408035166ZM121.08108408035166 88.58108408035166V71.58108408035166L90.58108408035166 41.08108408035166H73.58108408035166ZM121.08108408035166 89.58108408035166V72.58108408035166L89.58108408035166 41.08108408035166H72.58108408035166ZM41.08108408035166 72.58108408035166V89.58108408035166L72.58108408035166 121.08108408035166H89.58108408035166Z " transform="matrix(2.1028333333333333,0,0,2.1028333333333333,0,0)" fill-opacity="0.4549019607843137" fill="#007efc" stroke-opacity="0.20784313725490197" stroke-width="6" stroke="#007efc" opacity="1" stroke-linejoin="round" stroke-linecap="round" vector-effect="non-scaling-stroke"></path></g><g class="tile" vector-effect="non-scaling-stroke" id="SvgjsG1053" transform="matrix(2.7554552980815448e-15,1,-1,2.7554552980815448e-15,454.66664886474575,113.6666488647453)"><path xmlns="http://www.w3.org/2000/svg" d="M41.08108408035166 95.13513813440572V103.63513813440572L112.58108408035166 175.13513813440574H121.08108408035166V166.63513813440574L49.58108408035166 95.13513813440572ZM121.08108408035166 142.63513813440574V125.63513813440572L90.58108408035166 95.13513813440572H73.58108408035166ZM121.08108408035166 143.63513813440574V126.63513813440572L89.58108408035166 95.13513813440572H72.58108408035166ZM41.08108408035166 126.63513813440572V143.63513813440574L72.58108408035166 175.13513813440574H89.58108408035166Z " transform="matrix(2.1028333333333333,0,0,2.1028333333333333,0,0)" fill-opacity="0.4549019607843137" fill="#f97a12" stroke-opacity="0.20784313725490197" stroke-width="6" stroke="#f97a12" opacity="1" stroke-linejoin="round" stroke-linecap="round" vector-effect="non-scaling-stroke"></path></g><g class="tile" vector-effect="non-scaling-stroke" id="SvgjsG1052" transform="matrix(1,-4.40872847693047e-15,4.40872847693047e-15,1,-1.6768808563938364e-12,1.0231815394945443e-12)"><path xmlns="http://www.w3.org/2000/svg" d="M41.08108408035166 149.18919218845977V157.68919218845977L112.58108408035166 229.18919218845977H121.08108408035166V220.68919218845977L49.58108408035166 149.18919218845977ZM121.08108408035166 196.68919218845977V179.68919218845977L90.58108408035166 149.18919218845977H73.58108408035166ZM121.08108408035166 197.68919218845977V180.68919218845977L89.58108408035166 149.18919218845977H72.58108408035166ZM41.08108408035166 180.68919218845977V197.68919218845977L72.58108408035166 229.18919218845977H89.58108408035166Z " transform="matrix(2.1028333333333333,0,0,2.1028333333333333,0,0)" fill-opacity="0.4549019607843137" fill="#fe315d" stroke-opacity="0.20784313725490197" stroke-width="6" stroke="#fe315d" opacity="1" stroke-linejoin="round" stroke-linecap="round" vector-effect="non-scaling-stroke"></path></g><g class="tile" vector-effect="non-scaling-stroke" id="SvgjsG1051" transform="matrix(-2.6329906181668084e-15,-1,1,-2.6329906181668084e-15,-340.99999999999966,682.0000000000013)"><path xmlns="http://www.w3.org/2000/svg" d="M41.08108408035166 203.24324624251383V211.74324624251383L112.58108408035166 283.2432462425138H121.08108408035166V274.7432462425138L49.58108408035166 203.24324624251383ZM121.08108408035166 250.74324624251383V233.74324624251383L90.58108408035166 203.24324624251383H73.58108408035166ZM121.08108408035166 251.74324624251383V234.74324624251383L89.58108408035166 203.24324624251383H72.58108408035166ZM41.08108408035166 234.74324624251383V251.74324624251383L72.58108408035166 283.2432462425138H89.58108408035166Z " transform="matrix(2.1028333333333333,0,0,2.1028333333333333,0,0)" fill-opacity="0.4549019607843137" fill="#f97a12" stroke-opacity="0.20784313725490197" stroke-width="6" stroke="#f97a12" opacity="1" stroke-linejoin="round" stroke-linecap="round" vector-effect="non-scaling-stroke"></path></g><g class="tile" vector-effect="non-scaling-stroke" id="SvgjsG1050" transform="matrix(-1,3.3065463576978533e-15,-3.3065463576978533e-15,-1,341.0000000000018,1250.3333129882812)"><polygon xmlns="http://www.w3.org/2000/svg" points="121.08108520507812,265.7973002965679 121.08108520507812,257.2973002965679 121.08108520507812,257.2973002965679 121.08108520507812,257.2973002965679 121.08108520507812,257.2973002965679 112.58108520507812,257.2973002965679 112.58108520507812,257.2973002965679 72.58108520507812,257.2973002965679 41.081085205078125,288.7973002965679 41.081085205078125,328.7973002965679 41.081085205078125,328.7973002965679 41.081085205078125,337.2973002965679 49.581085205078125,337.2973002965679 121.08108520507812,265.7973002965679" transform="matrix(2.1028333333333333,0,0,2.1028333333333333,0,0)" fill-opacity="0.4549019607843137" fill="#007efc" stroke-opacity="0.20784313725490197" stroke-width="6" stroke="#007efc" opacity="1" stroke-linejoin="round" stroke-linecap="round" vector-effect="non-scaling-stroke"></polygon></g><g class="tile" vector-effect="non-scaling-stroke" id="SvgjsG1049" transform="matrix(-1,3.0616169978683826e-15,-3.0616169978683826e-15,-1,341.00000000000216,1477.6666259765625)"><polygon xmlns="http://www.w3.org/2000/svg" points="121.08108520507812,319.85135435062193 121.08108520507812,311.35135435062193 121.08108520507812,311.35135435062193 121.08108520507812,311.35135435062193 121.08108520507812,311.35135435062193 112.58108520507812,311.35135435062193 112.58108520507812,311.35135435062193 72.58108520507812,311.35135435062193 41.081085205078125,342.85135435062193 41.081085205078125,382.85135435062193 41.081085205078125,382.85135435062193 41.081085205078125,391.35135435062193 49.581085205078125,391.35135435062193 121.08108520507812,319.85135435062193" transform="matrix(2.1028333333333333,0,0,2.1028333333333333,0,0)" fill-opacity="0.4549019607843137" fill="#f97a12" stroke-opacity="0.20784313725490197" stroke-width="6" stroke="#f97a12" opacity="1" stroke-linejoin="round" stroke-linecap="round" vector-effect="non-scaling-stroke"></polygon></g><g class="tile" vector-effect="non-scaling-stroke" id="SvgjsG1048" transform="matrix(1,-3.918869757271528e-15,3.918869757271528e-15,1,-4.547473508864641e-13,1.1795009413617663e-12)"><polygon xmlns="http://www.w3.org/2000/svg" points="175.13513946533203,-12.972969973702394 175.13513946533203,35.52703002629761 143.63513946533203,67.02703002629761 95.13513946533203,67.02703002629761 95.13513946533203,-12.972969973702394 175.13513946533203,-12.972969973702394" transform="matrix(2.1028333333333333,0,0,2.1028333333333333,0,0)" fill-opacity="0.4549019607843137" fill="#f97a12" stroke-opacity="0.20784313725490197" stroke-width="6" stroke="#f97a12" opacity="1" stroke-linejoin="round" stroke-linecap="round" vector-effect="non-scaling-stroke"></polygon></g><g class="tile" vector-effect="non-scaling-stroke" id="SvgjsG1047" transform="matrix(2.5105259382520733e-15,1,-1,2.5105259382520733e-15,454.6666488647456,-113.66664886474632)"><polygon xmlns="http://www.w3.org/2000/svg" points="175.13513946533203,41.08108408035166 175.13513946533203,89.58108408035166 143.63513946533203,121.08108408035166 95.13513946533203,121.08108408035166 95.13513946533203,41.08108408035166 175.13513946533203,41.08108408035166" transform="matrix(2.1028333333333333,0,0,2.1028333333333333,0,0)" fill-opacity="0.4549019607843137" fill="#fe315d" stroke-opacity="0.20784313725490197" stroke-width="6" stroke="#fe315d" opacity="1" stroke-linejoin="round" stroke-linecap="round" vector-effect="non-scaling-stroke"></polygon></g><g class="tile" vector-effect="non-scaling-stroke" id="SvgjsG1046" transform="matrix(-4.837354856632042e-15,-1,1,-4.837354856632042e-15,1.1937117960769683e-12,568.3332977294937)"><path xmlns="http://www.w3.org/2000/svg" d="M95.13513813440572 95.13513813440572V103.63513813440572L166.63513813440574 175.13513813440574H175.13513813440574V166.63513813440574L103.63513813440572 95.13513813440572ZM175.13513813440574 142.63513813440574V125.63513813440572L144.63513813440574 95.13513813440572H127.63513813440572ZM175.13513813440574 143.63513813440574V126.63513813440572L143.63513813440574 95.13513813440572H126.63513813440572ZM95.13513813440572 126.63513813440572V143.63513813440574L126.63513813440572 175.13513813440574H143.63513813440574Z " transform="matrix(2.1028333333333333,0,0,2.1028333333333333,0,0)" fill-opacity="0.4549019607843137" fill="#fe315d" stroke-opacity="0.20784313725490197" stroke-width="6" stroke="#fe315d" opacity="1" stroke-linejoin="round" stroke-linecap="round" vector-effect="non-scaling-stroke"></path></g><g class="tile" vector-effect="non-scaling-stroke" id="SvgjsG1045" transform="matrix(-1,3.061616997868382e-15,-3.061616997868382e-15,-1,568.3332977294929,795.6666564941399)"><polygon xmlns="http://www.w3.org/2000/svg" points="175.13513946533203,157.68919218845977 175.13513946533203,149.18919218845977 175.13513946533203,149.18919218845977 175.13513946533203,149.18919218845977 175.13513946533203,149.18919218845977 166.63513946533203,149.18919218845977 166.63513946533203,149.18919218845977 126.63513946533203,149.18919218845977 95.13513946533203,180.68919218845977 95.13513946533203,220.68919218845977 95.13513946533203,220.68919218845977 95.13513946533203,229.18919218845977 103.63513946533203,229.18919218845977 175.13513946533203,157.68919218845977" transform="matrix(2.1028333333333333,0,0,2.1028333333333333,0,0)" fill-opacity="0.4549019607843137" fill="#f97a12" stroke-opacity="0.20784313725490197" stroke-width="6" stroke="#f97a12" opacity="1" stroke-linejoin="round" stroke-linecap="round" vector-effect="non-scaling-stroke"></polygon></g><g class="tile" vector-effect="non-scaling-stroke" id="SvgjsG1044" transform="matrix(2.2655965784226026e-15,1,-1,2.2655965784226026e-15,795.6666488647453,227.33335113525283)"><path xmlns="http://www.w3.org/2000/svg" d="M95.13513813440572 203.24324624251383V211.74324624251383L166.63513813440574 283.2432462425138H175.13513813440574V274.7432462425138L103.63513813440572 203.24324624251383ZM175.13513813440574 250.74324624251383V233.74324624251383L144.63513813440574 203.24324624251383H127.63513813440572ZM175.13513813440574 251.74324624251383V234.74324624251383L143.63513813440574 203.24324624251383H126.63513813440572ZM95.13513813440572 234.74324624251383V251.74324624251383L126.63513813440572 283.2432462425138H143.63513813440574Z " transform="matrix(2.1028333333333333,0,0,2.1028333333333333,0,0)" fill-opacity="0.4549019607843137" fill="#f97a12" stroke-opacity="0.20784313725490197" stroke-width="6" stroke="#f97a12" opacity="1" stroke-linejoin="round" stroke-linecap="round" vector-effect="non-scaling-stroke"></path></g><g class="tile" vector-effect="non-scaling-stroke" id="SvgjsG1043" transform="matrix(-1,2.8166876380389108e-15,-2.8166876380389108e-15,-1,568.3332977294942,1250.3333129882803)"><path xmlns="http://www.w3.org/2000/svg" d="M95.13513813440572 257.2973002965679V265.7973002965679L166.63513813440574 337.2973002965679H175.13513813440574V328.7973002965679L103.63513813440572 257.2973002965679ZM175.13513813440574 304.7973002965679V287.7973002965679L144.63513813440574 257.2973002965679H127.63513813440572ZM175.13513813440574 305.7973002965679V288.7973002965679L143.63513813440574 257.2973002965679H126.63513813440572ZM95.13513813440572 288.7973002965679V305.7973002965679L126.63513813440572 337.2973002965679H143.63513813440574Z " transform="matrix(2.1028333333333333,0,0,2.1028333333333333,0,0)" fill-opacity="0.4549019607843137" fill="#f97a12" stroke-opacity="0.20784313725490197" stroke-width="6" stroke="#f97a12" opacity="1" stroke-linejoin="round" stroke-linecap="round" vector-effect="non-scaling-stroke"></path></g><g class="tile" vector-effect="non-scaling-stroke" id="SvgjsG1042" transform="matrix(1,-2.4492935982947057e-15,2.4492935982947057e-15,1,-1.6484591469634324e-12,4.547473508864641e-13)"><polygon xmlns="http://www.w3.org/2000/svg" points="175.13513946533203,311.35135435062193 175.13513946533203,359.85135435062193 143.63513946533203,391.35135435062193 95.13513946533203,391.35135435062193 95.13513946533203,311.35135435062193 175.13513946533203,311.35135435062193" transform="matrix(2.1028333333333333,0,0,2.1028333333333333,0,0)" fill-opacity="0.4549019607843137" fill="#f97a12" stroke-opacity="0.20784313725490197" stroke-width="6" stroke="#f97a12" opacity="1" stroke-linejoin="round" stroke-linecap="round" vector-effect="non-scaling-stroke"></polygon></g><g class="tile" vector-effect="non-scaling-stroke" id="SvgjsG1041" transform="matrix(-2.1431318985078675e-15,-1,1,-2.1431318985078675e-15,340.9999866485603,454.66666984558117)"><polygon xmlns="http://www.w3.org/2000/svg" points="229.18919372558594,-12.972969973702394 229.18919372558594,35.52703002629761 197.68919372558594,67.02703002629761 149.18919372558594,67.02703002629761 149.18919372558594,-12.972969973702394 229.18919372558594,-12.972969973702394" transform="matrix(2.1028333333333333,0,0,2.1028333333333333,0,0)" fill-opacity="0.4549019607843137" fill="#fe315d" stroke-opacity="0.20784313725490197" stroke-width="6" stroke="#fe315d" opacity="1" stroke-linejoin="round" stroke-linecap="round" vector-effect="non-scaling-stroke"></polygon></g><g class="tile" vector-effect="non-scaling-stroke" id="SvgjsG1040" transform="matrix(-3.12284933782575e-15,-1,1,-3.12284933782575e-15,227.3333282470715,568.3333282470708)"><polygon xmlns="http://www.w3.org/2000/svg" points="229.18919372558594,49.58108408035166 229.18919372558594,41.08108408035166 229.18919372558594,41.08108408035166 229.18919372558594,41.08108408035166 229.18919372558594,41.08108408035166 220.68919372558594,41.08108408035166 220.68919372558594,41.08108408035166 180.68919372558594,41.08108408035166 149.18919372558594,72.58108408035166 149.18919372558594,112.58108408035166 149.18919372558594,112.58108408035166 149.18919372558594,121.08108408035166 157.68919372558594,121.08108408035166 229.18919372558594,49.58108408035166" transform="matrix(2.1028333333333333,0,0,2.1028333333333333,0,0)" fill-opacity="0.4549019607843137" fill="#f97a12" stroke-opacity="0.20784313725490197" stroke-width="6" stroke="#f97a12" opacity="1" stroke-linejoin="round" stroke-linecap="round" vector-effect="non-scaling-stroke"></polygon></g><g class="tile" vector-effect="non-scaling-stroke" id="SvgjsG1039" transform="matrix(1,-2.204364238465236e-15,2.204364238465236e-15,1,-7.389644451905042e-13,9.094947017729282e-13)"><path xmlns="http://www.w3.org/2000/svg" d="M149.18919218845977 95.13513813440572V103.63513813440572L220.68919218845977 175.13513813440574H229.18919218845977V166.63513813440574L157.68919218845977 95.13513813440572ZM229.18919218845977 142.63513813440574V125.63513813440572L198.68919218845977 95.13513813440572H181.68919218845977ZM229.18919218845977 143.63513813440574V126.63513813440572L197.68919218845977 95.13513813440572H180.68919218845977ZM149.18919218845977 126.63513813440572V143.63513813440574L180.68919218845977 175.13513813440574H197.68919218845977Z " transform="matrix(2.1028333333333333,0,0,2.1028333333333333,0,0)" fill-opacity="0.4549019607843137" fill="#fe315d" stroke-opacity="0.20784313725490197" stroke-width="6" stroke="#fe315d" opacity="1" stroke-linejoin="round" stroke-linecap="round" vector-effect="non-scaling-stroke"></path></g><g class="tile" vector-effect="non-scaling-stroke" id="SvgjsG1038" transform="matrix(-1,3.5514757175273244e-15,-3.5514757175273244e-15,-1,795.6666564941422,795.6666564941396)"><polygon xmlns="http://www.w3.org/2000/svg" points="229.18919372558594,149.18919218845977 229.18919372558594,197.68919218845977 197.68919372558594,229.18919218845977 149.18919372558594,229.18919218845977 149.18919372558594,149.18919218845977 229.18919372558594,149.18919218845977" transform="matrix(2.1028333333333333,0,0,2.1028333333333333,0,0)" fill-opacity="0.4549019607843137" fill="#007efc" stroke-opacity="0.20784313725490197" stroke-width="6" stroke="#007efc" opacity="1" stroke-linejoin="round" stroke-linecap="round" vector-effect="non-scaling-stroke"></polygon></g><g class="tile" vector-effect="non-scaling-stroke" id="SvgjsG1037" transform="matrix(-3.1228493378257502e-15,-1,1,-3.1228493378257502e-15,-113.66667175292872,909.3333282470721)"><path xmlns="http://www.w3.org/2000/svg" d="M149.18919218845977 203.24324624251383V211.74324624251383L220.68919218845977 283.2432462425138H229.18919218845977V274.7432462425138L157.68919218845977 203.24324624251383ZM229.18919218845977 250.74324624251383V233.74324624251383L198.68919218845977 203.24324624251383H181.68919218845977ZM229.18919218845977 251.74324624251383V234.74324624251383L197.68919218845977 203.24324624251383H180.68919218845977ZM149.18919218845977 234.74324624251383V251.74324624251383L180.68919218845977 283.2432462425138H197.68919218845977Z " transform="matrix(2.1028333333333333,0,0,2.1028333333333333,0,0)" fill-opacity="0.4549019607843137" fill="#f97a12" stroke-opacity="0.20784313725490197" stroke-width="6" stroke="#f97a12" opacity="1" stroke-linejoin="round" stroke-linecap="round" vector-effect="non-scaling-stroke"></path></g><g class="tile" vector-effect="non-scaling-stroke" id="SvgjsG1036" transform="matrix(1,-2.9391523179536475e-15,2.9391523179536475e-15,1,-1.7621459846850485e-12,1.3642420526593924e-12)"><polygon xmlns="http://www.w3.org/2000/svg" points="229.18919372558594,265.7973002965679 229.18919372558594,257.2973002965679 229.18919372558594,257.2973002965679 229.18919372558594,257.2973002965679 229.18919372558594,257.2973002965679 220.68919372558594,257.2973002965679 220.68919372558594,257.2973002965679 180.68919372558594,257.2973002965679 149.18919372558594,288.7973002965679 149.18919372558594,328.7973002965679 149.18919372558594,328.7973002965679 149.18919372558594,337.2973002965679 157.68919372558594,337.2973002965679 229.18919372558594,265.7973002965679" transform="matrix(2.1028333333333333,0,0,2.1028333333333333,0,0)" fill-opacity="0.4549019607843137" fill="#f97a12" stroke-opacity="0.20784313725490197" stroke-width="6" stroke="#f97a12" opacity="1" stroke-linejoin="round" stroke-linecap="round" vector-effect="non-scaling-stroke"></polygon></g><g class="tile" vector-effect="non-scaling-stroke" id="SvgjsG1035" transform="matrix(-1,3.5514757175273236e-15,-3.5514757175273236e-15,-1,795.6666564941431,1477.6666259765611)"><path xmlns="http://www.w3.org/2000/svg" d="M149.18919218845977 311.35135435062193V319.85135435062193L220.68919218845977 391.35135435062193H229.18919218845977V382.85135435062193L157.68919218845977 311.35135435062193ZM229.18919218845977 358.85135435062193V341.85135435062193L198.68919218845977 311.35135435062193H181.68919218845977ZM229.18919218845977 359.85135435062193V342.85135435062193L197.68919218845977 311.35135435062193H180.68919218845977ZM149.18919218845977 342.85135435062193V359.85135435062193L180.68919218845977 391.35135435062193H197.68919218845977Z " transform="matrix(2.1028333333333333,0,0,2.1028333333333333,0,0)" fill-opacity="0.4549019607843137" fill="#007efc" stroke-opacity="0.20784313725490197" stroke-width="6" stroke="#007efc" opacity="1" stroke-linejoin="round" stroke-linecap="round" vector-effect="non-scaling-stroke"></path></g><g class="tile" vector-effect="non-scaling-stroke" id="SvgjsG1034" transform="matrix(-3.612708057484691e-15,-1,1,-3.612708057484691e-15,454.66662788391284,568.3333110809331)"><polygon xmlns="http://www.w3.org/2000/svg" points="283.2432403564453,-12.972969973702394 283.2432403564453,35.52703002629761 251.7432403564453,67.02703002629761 203.2432403564453,67.02703002629761 203.2432403564453,-12.972969973702394 283.2432403564453,-12.972969973702394" transform="matrix(2.1028333333333333,0,0,2.1028333333333333,0,0)" fill-opacity="0.4549019607843137" fill="#fe315d" stroke-opacity="0.20784313725490197" stroke-width="6" stroke="#fe315d" opacity="1" stroke-linejoin="round" stroke-linecap="round" vector-effect="non-scaling-stroke"></polygon></g><g class="tile" vector-effect="non-scaling-stroke" id="SvgjsG1033" transform="matrix(1,-3.91886975727153e-15,3.91886975727153e-15,1,-7.958078640513122e-13,1.7337242752546445e-12)"><polygon xmlns="http://www.w3.org/2000/svg" points="283.2432403564453,41.08108408035166 283.2432403564453,89.58108408035166 251.7432403564453,121.08108408035166 203.2432403564453,121.08108408035166 203.2432403564453,41.08108408035166 283.2432403564453,41.08108408035166" transform="matrix(2.1028333333333333,0,0,2.1028333333333333,0,0)" fill-opacity="0.4549019607843137" fill="#007efc" stroke-opacity="0.20784313725490197" stroke-width="6" stroke="#007efc" opacity="1" stroke-linejoin="round" stroke-linecap="round" vector-effect="non-scaling-stroke"></polygon></g><g class="tile" vector-effect="non-scaling-stroke" id="SvgjsG1032" transform="matrix(1,-3.1840816777831186e-15,3.1840816777831186e-15,1,-7.389644451905042e-13,1.4779288903810084e-12)"><path xmlns="http://www.w3.org/2000/svg" d="M203.24324624251383 95.13513813440572V103.63513813440572L274.7432462425138 175.13513813440574H283.2432462425138V166.63513813440574L211.74324624251383 95.13513813440572ZM283.2432462425138 142.63513813440574V125.63513813440572L252.74324624251383 95.13513813440572H235.74324624251383ZM283.2432462425138 143.63513813440574V126.63513813440572L251.74324624251383 95.13513813440572H234.74324624251383ZM203.24324624251383 126.63513813440572V143.63513813440574L234.74324624251383 175.13513813440574H251.74324624251383Z " transform="matrix(2.1028333333333333,0,0,2.1028333333333333,0,0)" fill-opacity="0.4549019607843137" fill="#007efc" stroke-opacity="0.20784313725490197" stroke-width="6" stroke="#007efc" opacity="1" stroke-linejoin="round" stroke-linecap="round" vector-effect="non-scaling-stroke"></path></g><g class="tile" vector-effect="non-scaling-stroke" id="SvgjsG1031" transform="matrix(3.735172737399427e-15,1,-1,3.735172737399427e-15,909.3332977294901,-113.6666412353531)"><polygon xmlns="http://www.w3.org/2000/svg" points="283.2432403564453,149.18919218845977 283.2432403564453,197.68919218845977 251.7432403564453,229.18919218845977 203.2432403564453,229.18919218845977 203.2432403564453,149.18919218845977 283.2432403564453,149.18919218845977" transform="matrix(2.1028333333333333,0,0,2.1028333333333333,0,0)" fill-opacity="0.4549019607843137" fill="#007efc" stroke-opacity="0.20784313725490197" stroke-width="6" stroke="#007efc" opacity="1" stroke-linejoin="round" stroke-linecap="round" vector-effect="non-scaling-stroke"></polygon></g><g class="tile" vector-effect="non-scaling-stroke" id="SvgjsG1030" transform="matrix(1,-2.449293598294706e-15,2.449293598294706e-15,1,-1.2505552149377763e-12,1.2505552149377763e-12)"><path xmlns="http://www.w3.org/2000/svg" d="M203.24324624251383 203.24324624251383V211.74324624251383L274.7432462425138 283.2432462425138H283.2432462425138V274.7432462425138L211.74324624251383 203.24324624251383ZM283.2432462425138 250.74324624251383V233.74324624251383L252.74324624251383 203.24324624251383H235.74324624251383ZM283.2432462425138 251.74324624251383V234.74324624251383L251.74324624251383 203.24324624251383H234.74324624251383ZM203.24324624251383 234.74324624251383V251.74324624251383L234.74324624251383 283.2432462425138H251.74324624251383Z " transform="matrix(2.1028333333333333,0,0,2.1028333333333333,0,0)" fill-opacity="0.4549019607843137" fill="#fe315d" stroke-opacity="0.20784313725490197" stroke-width="6" stroke="#fe315d" opacity="1" stroke-linejoin="round" stroke-linecap="round" vector-effect="non-scaling-stroke"></path></g><g class="tile" vector-effect="non-scaling-stroke" id="SvgjsG1029" transform="matrix(-2.632990618166809e-15,-1,1,-2.632990618166809e-15,-113.6666870117167,1136.6666259765645)"><polygon xmlns="http://www.w3.org/2000/svg" points="283.2432403564453,265.7973002965679 283.2432403564453,257.2973002965679 283.2432403564453,257.2973002965679 283.2432403564453,257.2973002965679 283.2432403564453,257.2973002965679 274.7432403564453,257.2973002965679 274.7432403564453,257.2973002965679 234.7432403564453,257.2973002965679 203.2432403564453,288.7973002965679 203.2432403564453,328.7973002965679 203.2432403564453,328.7973002965679 203.2432403564453,337.2973002965679 211.7432403564453,337.2973002965679 283.2432403564453,265.7973002965679" transform="matrix(2.1028333333333333,0,0,2.1028333333333333,0,0)" fill-opacity="0.4549019607843137" fill="#007efc" stroke-opacity="0.20784313725490197" stroke-width="6" stroke="#007efc" opacity="1" stroke-linejoin="round" stroke-linecap="round" vector-effect="non-scaling-stroke"></polygon></g><g class="tile" vector-effect="non-scaling-stroke" id="SvgjsG1028" transform="matrix(2.2655965784226026e-15,1,-1,2.2655965784226026e-15,1250.3333129882797,227.33331298827932)"><path xmlns="http://www.w3.org/2000/svg" d="M203.24324624251383 311.35135435062193V319.85135435062193L274.7432462425138 391.35135435062193H283.2432462425138V382.85135435062193L211.74324624251383 311.35135435062193ZM283.2432462425138 358.85135435062193V341.85135435062193L252.74324624251383 311.35135435062193H235.74324624251383ZM283.2432462425138 359.85135435062193V342.85135435062193L251.74324624251383 311.35135435062193H234.74324624251383ZM203.24324624251383 342.85135435062193V359.85135435062193L234.74324624251383 391.35135435062193H251.74324624251383Z " transform="matrix(2.1028333333333333,0,0,2.1028333333333333,0,0)" fill-opacity="0.4549019607843137" fill="#007efc" stroke-opacity="0.20784313725490197" stroke-width="6" stroke="#007efc" opacity="1" stroke-linejoin="round" stroke-linecap="round" vector-effect="non-scaling-stroke"></path></g><g class="tile" vector-effect="non-scaling-stroke" id="SvgjsG1027" transform="matrix(-1,3.3065463576978533e-15,-3.3065463576978533e-15,-1,1250.3333129882812,113.66668319701935)"><path xmlns="http://www.w3.org/2000/svg" d="M257.2973002965679 -12.972969973702394V-4.472969973702394L328.7973002965679 67.02703002629761H337.2973002965679V58.52703002629761L265.7973002965679 -12.972969973702394ZM337.2973002965679 34.52703002629761V17.527030026297606L306.7973002965679 -12.972969973702394H289.7973002965679ZM337.2973002965679 35.52703002629761V18.527030026297606L305.7973002965679 -12.972969973702394H288.7973002965679ZM257.2973002965679 18.527030026297606V35.52703002629761L288.7973002965679 67.02703002629761H305.7973002965679Z " transform="matrix(2.1028333333333333,0,0,2.1028333333333333,0,0)" fill-opacity="0.4549019607843137" fill="#f97a12" stroke-opacity="0.20784313725490197" stroke-width="6" stroke="#f97a12" opacity="1" stroke-linejoin="round" stroke-linecap="round" vector-effect="non-scaling-stroke"></path></g><g class="tile" vector-effect="non-scaling-stroke" id="SvgjsG1026" transform="matrix(-1,2.5717582782094413e-15,-2.5717582782094413e-15,-1,1250.3333129882817,340.99999999999864)"><polygon xmlns="http://www.w3.org/2000/svg" points="337.29730224609375,41.08108408035166 337.29730224609375,89.58108408035166 305.79730224609375,121.08108408035166 257.29730224609375,121.08108408035166 257.29730224609375,41.08108408035166 337.29730224609375,41.08108408035166" transform="matrix(2.1028333333333333,0,0,2.1028333333333333,0,0)" fill-opacity="0.4549019607843137" fill="#007efc" stroke-opacity="0.20784313725490197" stroke-width="6" stroke="#007efc" opacity="1" stroke-linejoin="round" stroke-linecap="round" vector-effect="non-scaling-stroke"></polygon></g><g class="tile" vector-effect="non-scaling-stroke" id="SvgjsG1025" transform="matrix(1,-4.408728476930469e-15,4.408728476930469e-15,1,-1.1368683772161603e-12,2.4442670110147446e-12)"><path xmlns="http://www.w3.org/2000/svg" d="M257.2973002965679 95.13513813440572V103.63513813440572L328.7973002965679 175.13513813440574H337.2973002965679V166.63513813440574L265.7973002965679 95.13513813440572ZM337.2973002965679 142.63513813440574V125.63513813440572L306.7973002965679 95.13513813440572H289.7973002965679ZM337.2973002965679 143.63513813440574V126.63513813440572L305.7973002965679 95.13513813440572H288.7973002965679ZM257.2973002965679 126.63513813440572V143.63513813440574L288.7973002965679 175.13513813440574H305.7973002965679Z " transform="matrix(2.1028333333333333,0,0,2.1028333333333333,0,0)" fill-opacity="0.4549019607843137" fill="#007efc" stroke-opacity="0.20784313725490197" stroke-width="6" stroke="#007efc" opacity="1" stroke-linejoin="round" stroke-linecap="round" vector-effect="non-scaling-stroke"></path></g><g class="tile" vector-effect="non-scaling-stroke" id="SvgjsG1024" transform="matrix(-1,2.32682891837997e-15,-2.32682891837997e-15,-1,1250.333312988282,795.6666564941389)"><path xmlns="http://www.w3.org/2000/svg" d="M257.2973002965679 149.18919218845977V157.68919218845977L328.7973002965679 229.18919218845977H337.2973002965679V220.68919218845977L265.7973002965679 149.18919218845977ZM337.2973002965679 196.68919218845977V179.68919218845977L306.7973002965679 149.18919218845977H289.7973002965679ZM337.2973002965679 197.68919218845977V180.68919218845977L305.7973002965679 149.18919218845977H288.7973002965679ZM257.2973002965679 180.68919218845977V197.68919218845977L288.7973002965679 229.18919218845977H305.7973002965679Z " transform="matrix(2.1028333333333333,0,0,2.1028333333333333,0,0)" fill-opacity="0.4549019607843137" fill="#fe315d" stroke-opacity="0.20784313725490197" stroke-width="6" stroke="#fe315d" opacity="1" stroke-linejoin="round" stroke-linecap="round" vector-effect="non-scaling-stroke"></path></g><g class="tile" vector-effect="non-scaling-stroke" id="SvgjsG1023" transform="matrix(-3.6127080574846916e-15,-1,1,-3.6127080574846916e-15,113.6666564941429,1136.6666564941427)"><polygon xmlns="http://www.w3.org/2000/svg" points="337.29730224609375,203.24324624251383 337.29730224609375,251.74324624251383 305.79730224609375,283.2432462425138 257.29730224609375,283.2432462425138 257.29730224609375,203.24324624251383 337.29730224609375,203.24324624251383" transform="matrix(2.1028333333333333,0,0,2.1028333333333333,0,0)" fill-opacity="0.4549019607843137" fill="#fe315d" stroke-opacity="0.20784313725490197" stroke-width="6" stroke="#fe315d" opacity="1" stroke-linejoin="round" stroke-linecap="round" vector-effect="non-scaling-stroke"></polygon></g><g class="tile" vector-effect="non-scaling-stroke" id="SvgjsG1022" transform="matrix(-2.388061258337338e-15,-1,1,-2.388061258337338e-15,1.3642420526593924e-12,1250.333312988284)"><polygon xmlns="http://www.w3.org/2000/svg" points="337.29730224609375,265.7973002965679 337.29730224609375,257.2973002965679 337.29730224609375,257.2973002965679 337.29730224609375,257.2973002965679 337.29730224609375,257.2973002965679 328.79730224609375,257.2973002965679 328.79730224609375,257.2973002965679 288.79730224609375,257.2973002965679 257.29730224609375,288.7973002965679 257.29730224609375,328.7973002965679 257.29730224609375,328.7973002965679 257.29730224609375,337.2973002965679 265.79730224609375,337.2973002965679 337.29730224609375,265.7973002965679" transform="matrix(2.1028333333333333,0,0,2.1028333333333333,0,0)" fill-opacity="0.4549019607843137" fill="#f97a12" stroke-opacity="0.20784313725490197" stroke-width="6" stroke="#f97a12" opacity="1" stroke-linejoin="round" stroke-linecap="round" vector-effect="non-scaling-stroke"></polygon></g><g class="tile" vector-effect="non-scaling-stroke" id="SvgjsG1021" transform="matrix(1,-3.1840816777831178e-15,3.1840816777831178e-15,1,-2.8421709430404007e-12,2.6147972675971687e-12)"><path xmlns="http://www.w3.org/2000/svg" d="M257.2973002965679 311.35135435062193V319.85135435062193L328.7973002965679 391.35135435062193H337.2973002965679V382.85135435062193L265.7973002965679 311.35135435062193ZM337.2973002965679 358.85135435062193V341.85135435062193L306.7973002965679 311.35135435062193H289.7973002965679ZM337.2973002965679 359.85135435062193V342.85135435062193L305.7973002965679 311.35135435062193H288.7973002965679ZM257.2973002965679 342.85135435062193V359.85135435062193L288.7973002965679 391.35135435062193H305.7973002965679Z " transform="matrix(2.1028333333333333,0,0,2.1028333333333333,0,0)" fill-opacity="0.4549019607843137" fill="#f97a12" stroke-opacity="0.20784313725490197" stroke-width="6" stroke="#f97a12" opacity="1" stroke-linejoin="round" stroke-linecap="round" vector-effect="non-scaling-stroke"></path></g><g class="tile" vector-effect="non-scaling-stroke" id="SvgjsG1020" transform="matrix(-1,2.8166876380389116e-15,-2.8166876380389116e-15,-1,1477.6666259765625,113.6666831970194)"><polygon xmlns="http://www.w3.org/2000/svg" points="391.3513488769531,-12.972969973702394 391.3513488769531,35.52703002629761 359.8513488769531,67.02703002629761 311.3513488769531,67.02703002629761 311.3513488769531,-12.972969973702394 391.3513488769531,-12.972969973702394" transform="matrix(2.1028333333333333,0,0,2.1028333333333333,0,0)" fill-opacity="0.4549019607843137" fill="#fe315d" stroke-opacity="0.20784313725490197" stroke-width="6" stroke="#fe315d" opacity="1" stroke-linejoin="round" stroke-linecap="round" vector-effect="non-scaling-stroke"></polygon></g><g class="tile" vector-effect="non-scaling-stroke" id="SvgjsG1019" transform="matrix(-1,3.796405077356794e-15,-3.796405077356794e-15,-1,1477.6666259765634,340.99999999999727)"><path xmlns="http://www.w3.org/2000/svg" d="M311.35135435062193 41.08108408035166V49.58108408035166L382.85135435062193 121.08108408035166H391.35135435062193V112.58108408035166L319.85135435062193 41.08108408035166ZM391.35135435062193 88.58108408035166V71.58108408035166L360.85135435062193 41.08108408035166H343.85135435062193ZM391.35135435062193 89.58108408035166V72.58108408035166L359.85135435062193 41.08108408035166H342.85135435062193ZM311.35135435062193 72.58108408035166V89.58108408035166L342.85135435062193 121.08108408035166H359.85135435062193Z " transform="matrix(2.1028333333333333,0,0,2.1028333333333333,0,0)" fill-opacity="0.4549019607843137" fill="#007efc" stroke-opacity="0.20784313725490197" stroke-width="6" stroke="#007efc" opacity="1" stroke-linejoin="round" stroke-linecap="round" vector-effect="non-scaling-stroke"></path></g><g class="tile" vector-effect="non-scaling-stroke" id="SvgjsG1018" transform="matrix(-1,2.8166876380389116e-15,-2.8166876380389116e-15,-1,1477.666625976563,568.3332977294903)"><polygon xmlns="http://www.w3.org/2000/svg" points="391.3513488769531,103.63513813440572 391.3513488769531,95.13513813440572 391.3513488769531,95.13513813440572 391.3513488769531,95.13513813440572 391.3513488769531,95.13513813440572 382.8513488769531,95.13513813440572 382.8513488769531,95.13513813440572 342.8513488769531,95.13513813440572 311.3513488769531,126.63513813440572 311.3513488769531,166.63513813440574 311.3513488769531,166.63513813440574 311.3513488769531,175.13513813440574 319.8513488769531,175.13513813440574 391.3513488769531,103.63513813440572" transform="matrix(2.1028333333333333,0,0,2.1028333333333333,0,0)" fill-opacity="0.4549019607843137" fill="#fe315d" stroke-opacity="0.20784313725490197" stroke-width="6" stroke="#fe315d" opacity="1" stroke-linejoin="round" stroke-linecap="round" vector-effect="non-scaling-stroke"></polygon></g><g class="tile" vector-effect="non-scaling-stroke" id="SvgjsG1017" transform="matrix(-4.102566777143632e-15,-1,1,-4.102566777143632e-15,340.99998474121395,1136.666641235353)"><path xmlns="http://www.w3.org/2000/svg" d="M311.35135435062193 149.18919218845977V157.68919218845977L382.85135435062193 229.18919218845977H391.35135435062193V220.68919218845977L319.85135435062193 149.18919218845977ZM391.35135435062193 196.68919218845977V179.68919218845977L360.85135435062193 149.18919218845977H343.85135435062193ZM391.35135435062193 197.68919218845977V180.68919218845977L359.85135435062193 149.18919218845977H342.85135435062193ZM311.35135435062193 180.68919218845977V197.68919218845977L342.85135435062193 229.18919218845977H359.85135435062193Z " transform="matrix(2.1028333333333333,0,0,2.1028333333333333,0,0)" fill-opacity="0.4549019607843137" fill="#f97a12" stroke-opacity="0.20784313725490197" stroke-width="6" stroke="#f97a12" opacity="1" stroke-linejoin="round" stroke-linecap="round" vector-effect="non-scaling-stroke"></path></g><g class="tile" vector-effect="non-scaling-stroke" id="SvgjsG1016" transform="matrix(2.2655965784226034e-15,1,-1,2.2655965784226034e-15,1250.33331298828,-227.33331298828267)"><polygon xmlns="http://www.w3.org/2000/svg" points="391.3513488769531,211.74324624251383 391.3513488769531,203.24324624251383 391.3513488769531,203.24324624251383 391.3513488769531,203.24324624251383 391.3513488769531,203.24324624251383 382.8513488769531,203.24324624251383 382.8513488769531,203.24324624251383 342.8513488769531,203.24324624251383 311.3513488769531,234.74324624251383 311.3513488769531,274.7432462425138 311.3513488769531,274.7432462425138 311.3513488769531,283.2432462425138 319.8513488769531,283.2432462425138 391.3513488769531,211.74324624251383" transform="matrix(2.1028333333333333,0,0,2.1028333333333333,0,0)" fill-opacity="0.4549019607843137" fill="#f97a12" stroke-opacity="0.20784313725490197" stroke-width="6" stroke="#f97a12" opacity="1" stroke-linejoin="round" stroke-linecap="round" vector-effect="non-scaling-stroke"></polygon></g><g class="tile" vector-effect="non-scaling-stroke" id="SvgjsG1015" transform="matrix(-2.8779199779962787e-15,-1,1,-2.8779199779962787e-15,113.66665649414233,1363.9999694824232)"><polygon xmlns="http://www.w3.org/2000/svg" points="391.3513488769531,257.2973002965679 391.3513488769531,305.7973002965679 359.8513488769531,337.2973002965679 311.3513488769531,337.2973002965679 311.3513488769531,257.2973002965679 391.3513488769531,257.2973002965679" transform="matrix(2.1028333333333333,0,0,2.1028333333333333,0,0)" fill-opacity="0.4549019607843137" fill="#f97a12" stroke-opacity="0.20784313725490197" stroke-width="6" stroke="#f97a12" opacity="1" stroke-linejoin="round" stroke-linecap="round" vector-effect="non-scaling-stroke"></polygon></g><g class="tile" vector-effect="non-scaling-stroke" id="SvgjsG1014" transform="matrix(-2.87791997799628e-15,-1,1,-2.87791997799628e-15,1.3642420526593924e-12,1477.6666259765652)"><path xmlns="http://www.w3.org/2000/svg" d="M311.35135435062193 311.35135435062193V319.85135435062193L382.85135435062193 391.35135435062193H391.35135435062193V382.85135435062193L319.85135435062193 311.35135435062193ZM391.35135435062193 358.85135435062193V341.85135435062193L360.85135435062193 311.35135435062193H343.85135435062193ZM391.35135435062193 359.85135435062193V342.85135435062193L359.85135435062193 311.35135435062193H342.85135435062193ZM311.35135435062193 342.85135435062193V359.85135435062193L342.85135435062193 391.35135435062193H359.85135435062193Z " transform="matrix(2.1028333333333333,0,0,2.1028333333333333,0,0)" fill-opacity="0.4549019607843137" fill="#f97a12" stroke-opacity="0.20784313725490197" stroke-width="6" stroke="#f97a12" opacity="1" stroke-linejoin="round" stroke-linecap="round" vector-effect="non-scaling-stroke"></path></g><g class="tile" vector-effect="non-scaling-stroke" id="SvgjsG1013" transform="matrix(-1,4.286263797015735e-15,-4.286263797015735e-15,-1,1704.9998779296877,113.66668319701785)"><path xmlns="http://www.w3.org/2000/svg" d="M365.40540840467605 -12.972969973702394V-4.472969973702394L436.90540840467605 67.02703002629761H445.40540840467605V58.52703002629761L373.90540840467605 -12.972969973702394ZM445.40540840467605 34.52703002629761V17.527030026297606L414.90540840467605 -12.972969973702394H397.90540840467605ZM445.40540840467605 35.52703002629761V18.527030026297606L413.90540840467605 -12.972969973702394H396.90540840467605ZM365.40540840467605 18.527030026297606V35.52703002629761L396.90540840467605 67.02703002629761H413.90540840467605Z " transform="matrix(2.1028333333333333,0,0,2.1028333333333333,0,0)" fill-opacity="0.4549019607843137" fill="#007efc" stroke-opacity="0.20784313725490197" stroke-width="6" stroke="#007efc" opacity="1" stroke-linejoin="round" stroke-linecap="round" vector-effect="non-scaling-stroke"></path></g><g class="tile" vector-effect="non-scaling-stroke" id="SvgjsG1012" transform="matrix(-1,2.5717582782094413e-15,-2.5717582782094413e-15,-1,1704.9998779296875,340.999999999998)"><polygon xmlns="http://www.w3.org/2000/svg" points="445.4053955078125,41.08108408035166 445.4053955078125,89.58108408035166 413.9053955078125,121.08108408035166 365.4053955078125,121.08108408035166 365.4053955078125,41.08108408035166 445.4053955078125,41.08108408035166" transform="matrix(2.1028333333333333,0,0,2.1028333333333333,0,0)" fill-opacity="0.4549019607843137" fill="#fe315d" stroke-opacity="0.20784313725490197" stroke-width="6" stroke="#fe315d" opacity="1" stroke-linejoin="round" stroke-linecap="round" vector-effect="non-scaling-stroke"></polygon></g><g class="tile" vector-effect="non-scaling-stroke" id="SvgjsG1011" transform="matrix(3.245314017740485e-15,1,-1,3.245314017740485e-15,1136.6665878295876,-568.3332901000985)"><path xmlns="http://www.w3.org/2000/svg" d="M365.40540840467605 95.13513813440572V103.63513813440572L436.90540840467605 175.13513813440574H445.40540840467605V166.63513813440574L373.90540840467605 95.13513813440572ZM445.40540840467605 142.63513813440574V125.63513813440572L414.90540840467605 95.13513813440572H397.90540840467605ZM445.40540840467605 143.63513813440574V126.63513813440572L413.90540840467605 95.13513813440572H396.90540840467605ZM365.40540840467605 126.63513813440572V143.63513813440574L396.90540840467605 175.13513813440574H413.90540840467605Z " transform="matrix(2.1028333333333333,0,0,2.1028333333333333,0,0)" fill-opacity="0.4549019607843137" fill="#007efc" stroke-opacity="0.20784313725490197" stroke-width="6" stroke="#007efc" opacity="1" stroke-linejoin="round" stroke-linecap="round" vector-effect="non-scaling-stroke"></path></g><g class="tile" vector-effect="non-scaling-stroke" id="SvgjsG1010" transform="matrix(-1,2.816687638038911e-15,-2.816687638038911e-15,-1,1704.9998779296886,795.6666564941384)"><polygon xmlns="http://www.w3.org/2000/svg" points="445.4053955078125,157.68919218845977 445.4053955078125,149.18919218845977 445.4053955078125,149.18919218845977 445.4053955078125,149.18919218845977 445.4053955078125,149.18919218845977 436.9053955078125,149.18919218845977 436.9053955078125,149.18919218845977 396.9053955078125,149.18919218845977 365.4053955078125,180.68919218845977 365.4053955078125,220.68919218845977 365.4053955078125,220.68919218845977 365.4053955078125,229.18919218845977 373.9053955078125,229.18919218845977 445.4053955078125,157.68919218845977" transform="matrix(2.1028333333333333,0,0,2.1028333333333333,0,0)" fill-opacity="0.4549019607843137" fill="#fe315d" stroke-opacity="0.20784313725490197" stroke-width="6" stroke="#fe315d" opacity="1" stroke-linejoin="round" stroke-linecap="round" vector-effect="non-scaling-stroke"></polygon></g><g class="tile" vector-effect="non-scaling-stroke" id="SvgjsG1009" transform="matrix(-3.6127080574846916e-15,-1,1,-3.6127080574846916e-15,340.99993896484636,1363.9999389648453)"><path xmlns="http://www.w3.org/2000/svg" d="M365.40540840467605 203.24324624251383V211.74324624251383L436.90540840467605 283.2432462425138H445.40540840467605V274.7432462425138L373.90540840467605 203.24324624251383ZM445.40540840467605 250.74324624251383V233.74324624251383L414.90540840467605 203.24324624251383H397.90540840467605ZM445.40540840467605 251.74324624251383V234.74324624251383L413.90540840467605 203.24324624251383H396.90540840467605ZM365.40540840467605 234.74324624251383V251.74324624251383L396.90540840467605 283.2432462425138H413.90540840467605Z " transform="matrix(2.1028333333333333,0,0,2.1028333333333333,0,0)" fill-opacity="0.4549019607843137" fill="#007efc" stroke-opacity="0.20784313725490197" stroke-width="6" stroke="#007efc" opacity="1" stroke-linejoin="round" stroke-linecap="round" vector-effect="non-scaling-stroke"></path></g><g class="tile" vector-effect="non-scaling-stroke" id="SvgjsG1008" transform="matrix(-1,4.041334437186265e-15,-4.041334437186265e-15,-1,1704.999877929689,1250.3333129882772)"><polygon xmlns="http://www.w3.org/2000/svg" points="445.4053955078125,265.7973002965679 445.4053955078125,257.2973002965679 445.4053955078125,257.2973002965679 445.4053955078125,257.2973002965679 445.4053955078125,257.2973002965679 436.9053955078125,257.2973002965679 436.9053955078125,257.2973002965679 396.9053955078125,257.2973002965679 365.4053955078125,288.7973002965679 365.4053955078125,328.7973002965679 365.4053955078125,328.7973002965679 365.4053955078125,337.2973002965679 373.9053955078125,337.2973002965679 445.4053955078125,265.7973002965679" transform="matrix(2.1028333333333333,0,0,2.1028333333333333,0,0)" fill-opacity="0.4549019607843137" fill="#fe315d" stroke-opacity="0.20784313725490197" stroke-width="6" stroke="#fe315d" opacity="1" stroke-linejoin="round" stroke-linecap="round" vector-effect="non-scaling-stroke"></polygon></g><g class="tile" vector-effect="non-scaling-stroke" id="SvgjsG1007" transform="matrix(2.265596578422603e-15,1,-1,2.265596578422603e-15,1591.3332519531227,-113.66662597656375)"><path xmlns="http://www.w3.org/2000/svg" d="M365.40540840467605 311.35135435062193V319.85135435062193L436.90540840467605 391.35135435062193H445.40540840467605V382.85135435062193L373.90540840467605 311.35135435062193ZM445.40540840467605 358.85135435062193V341.85135435062193L414.90540840467605 311.35135435062193H397.90540840467605ZM445.40540840467605 359.85135435062193V342.85135435062193L413.90540840467605 311.35135435062193H396.90540840467605ZM365.40540840467605 342.85135435062193V359.85135435062193L396.90540840467605 391.35135435062193H413.90540840467605Z " transform="matrix(2.1028333333333333,0,0,2.1028333333333333,0,0)" fill-opacity="0.4549019607843137" fill="#fe315d" stroke-opacity="0.20784313725490197" stroke-width="6" stroke="#fe315d" opacity="1" stroke-linejoin="round" stroke-linecap="round" vector-effect="non-scaling-stroke"></path></g><g class="tile" vector-effect="non-scaling-stroke" id="SvgjsG1006" transform="matrix(3.245314017740485e-15,1,-1,3.245314017740485e-15,1023.0000286102263,-909.3333454132082)"><polygon xmlns="http://www.w3.org/2000/svg" points="499.45947265625,-4.472969973702394 499.45947265625,-12.972969973702394 499.45947265625,-12.972969973702394 499.45947265625,-12.972969973702394 499.45947265625,-12.972969973702394 490.95947265625,-12.972969973702394 490.95947265625,-12.972969973702394 450.95947265625,-12.972969973702394 419.45947265625,18.527030026297606 419.45947265625,58.52703002629761 419.45947265625,58.52703002629761 419.45947265625,67.02703002629761 427.95947265625,67.02703002629761 499.45947265625,-4.472969973702394" transform="matrix(2.1028333333333333,0,0,2.1028333333333333,0,0)" fill-opacity="0.4549019607843137" fill="#007efc" stroke-opacity="0.20784313725490197" stroke-width="6" stroke="#007efc" opacity="1" stroke-linejoin="round" stroke-linecap="round" vector-effect="non-scaling-stroke"></polygon></g><g class="tile" vector-effect="non-scaling-stroke" id="SvgjsG1005" transform="matrix(1,-2.6942229581241764e-15,2.6942229581241764e-15,1,-3.410605131648481e-13,2.7853275241795927e-12)"><polygon xmlns="http://www.w3.org/2000/svg" points="499.45947265625,41.08108408035166 499.45947265625,89.58108408035166 467.95947265625,121.08108408035166 419.45947265625,121.08108408035166 419.45947265625,41.08108408035166 499.45947265625,41.08108408035166" transform="matrix(2.1028333333333333,0,0,2.1028333333333333,0,0)" fill-opacity="0.4549019607843137" fill="#fe315d" stroke-opacity="0.20784313725490197" stroke-width="6" stroke="#fe315d" opacity="1" stroke-linejoin="round" stroke-linecap="round" vector-effect="non-scaling-stroke"></polygon></g><g class="tile" vector-effect="non-scaling-stroke" id="SvgjsG1004" transform="matrix(3.735172737399425e-15,1,-1,3.735172737399425e-15,1250.3333358764614,-682.0000381469739)"><polygon xmlns="http://www.w3.org/2000/svg" points="499.45947265625,103.63513813440572 499.45947265625,95.13513813440572 499.45947265625,95.13513813440572 499.45947265625,95.13513813440572 499.45947265625,95.13513813440572 490.95947265625,95.13513813440572 490.95947265625,95.13513813440572 450.95947265625,95.13513813440572 419.45947265625,126.63513813440572 419.45947265625,166.63513813440574 419.45947265625,166.63513813440574 419.45947265625,175.13513813440574 427.95947265625,175.13513813440574 499.45947265625,103.63513813440572" transform="matrix(2.1028333333333333,0,0,2.1028333333333333,0,0)" fill-opacity="0.4549019607843137" fill="#f97a12" stroke-opacity="0.20784313725490197" stroke-width="6" stroke="#f97a12" opacity="1" stroke-linejoin="round" stroke-linecap="round" vector-effect="non-scaling-stroke"></polygon></g><g class="tile" vector-effect="non-scaling-stroke" id="SvgjsG1003" transform="matrix(-4.1025667771436314e-15,-1,1,-4.1025667771436314e-15,568.333358764652,1364.0000152587909)"><polygon xmlns="http://www.w3.org/2000/svg" points="499.45947265625,149.18919218845977 499.45947265625,197.68919218845977 467.95947265625,229.18919218845977 419.45947265625,229.18919218845977 419.45947265625,149.18919218845977 499.45947265625,149.18919218845977" transform="matrix(2.1028333333333333,0,0,2.1028333333333333,0,0)" fill-opacity="0.4549019607843137" fill="#f97a12" stroke-opacity="0.20784313725490197" stroke-width="6" stroke="#f97a12" opacity="1" stroke-linejoin="round" stroke-linecap="round" vector-effect="non-scaling-stroke"></polygon></g><g class="tile" vector-effect="non-scaling-stroke" id="SvgjsG1002" transform="matrix(1,-1.9594348786357647e-15,1.9594348786357647e-15,1,-1.0231815394945443e-12,1.8189894035458565e-12)"><path xmlns="http://www.w3.org/2000/svg" d="M419.45946245873006 203.24324624251383V211.74324624251383L490.95946245873006 283.2432462425138H499.45946245873006V274.7432462425138L427.95946245873006 203.24324624251383ZM499.45946245873006 250.74324624251383V233.74324624251383L468.95946245873006 203.24324624251383H451.95946245873006ZM499.45946245873006 251.74324624251383V234.74324624251383L467.95946245873006 203.24324624251383H450.95946245873006ZM419.45946245873006 234.74324624251383V251.74324624251383L450.95946245873006 283.2432462425138H467.95946245873006Z " transform="matrix(2.1028333333333333,0,0,2.1028333333333333,0,0)" fill-opacity="0.4549019607843137" fill="#007efc" stroke-opacity="0.20784313725490197" stroke-width="6" stroke="#007efc" opacity="1" stroke-linejoin="round" stroke-linecap="round" vector-effect="non-scaling-stroke"></path></g><g class="tile" vector-effect="non-scaling-stroke" id="SvgjsG1001" transform="matrix(1,-3.918869757271529e-15,3.918869757271529e-15,1,-3.069544618483633e-12,3.751665644813329e-12)"><polygon xmlns="http://www.w3.org/2000/svg" points="499.45947265625,257.2973002965679 499.45947265625,305.7973002965679 467.95947265625,337.2973002965679 419.45947265625,337.2973002965679 419.45947265625,257.2973002965679 499.45947265625,257.2973002965679" transform="matrix(2.1028333333333333,0,0,2.1028333333333333,0,0)" fill-opacity="0.4549019607843137" fill="#fe315d" stroke-opacity="0.20784313725490197" stroke-width="6" stroke="#fe315d" opacity="1" stroke-linejoin="round" stroke-linecap="round" vector-effect="non-scaling-stroke"></polygon></g><g class="tile" vector-effect="non-scaling-stroke" id="SvgjsG1000" transform="matrix(-1.8982025386783968e-15,-1,1,-1.8982025386783968e-15,227.33337402343932,1705.000000000001)"><polygon xmlns="http://www.w3.org/2000/svg" points="499.45947265625,319.85135435062193 499.45947265625,311.35135435062193 499.45947265625,311.35135435062193 499.45947265625,311.35135435062193 499.45947265625,311.35135435062193 490.95947265625,311.35135435062193 490.95947265625,311.35135435062193 450.95947265625,311.35135435062193 419.45947265625,342.85135435062193 419.45947265625,382.85135435062193 419.45947265625,382.85135435062193 419.45947265625,391.35135435062193 427.95947265625,391.35135435062193 499.45947265625,319.85135435062193" transform="matrix(2.1028333333333333,0,0,2.1028333333333333,0,0)" fill-opacity="0.4549019607843137" fill="#f97a12" stroke-opacity="0.20784313725490197" stroke-width="6" stroke="#f97a12" opacity="1" stroke-linejoin="round" stroke-linecap="round" vector-effect="non-scaling-stroke"></polygon></g></g></svg>